<?xml version="1.0" encoding="UTF-8" standalone="no"?>
<svg
   xmlns:dc="http://purl.org/dc/elements/1.1/"
   xmlns:cc="http://creativecommons.org/ns#"
   xmlns:rdf="http://www.w3.org/1999/02/22-rdf-syntax-ns#"
   xmlns:svg="http://www.w3.org/2000/svg"
   xmlns="http://www.w3.org/2000/svg"
   xmlns:sodipodi="http://sodipodi.sourceforge.net/DTD/sodipodi-0.dtd"
   xmlns:inkscape="http://www.inkscape.org/namespaces/inkscape"
   version="1.1"
   width="200"
   height="200"
   id="RSSicon"
   viewBox="0 0 400 400"
   inkscape:version="0.48.4 r9939"
   sodipodi:docname="feed-icon.svg">
  <metadata
     id="metadata2848">
    <rdf:RDF>
      <cc:Work
         rdf:about="">
        <dc:format>image/svg+xml</dc:format>
        <dc:type
           rdf:resource="http://purl.org/dc/dcmitype/StillImage" />
        <dc:title />
      </cc:Work>
    </rdf:RDF>
  </metadata>
  <sodipodi:namedview
     pagecolor="#ffffff"
     bordercolor="#666666"
     borderopacity="1"
     objecttolerance="10"
     gridtolerance="10"
     guidetolerance="10"
     inkscape:pageopacity="0"
     inkscape:pageshadow="2"
     inkscape:window-width="1582"
     inkscape:window-height="877"
     id="namedview2846"
     showgrid="false"
     showguides="true"
     inkscape:guide-bbox="true"
     inkscape:zoom="2.7698245"
     inkscape:cx="37.49006"
     inkscape:cy="96.371743"
     inkscape:window-x="18"
     inkscape:window-y="0"
     inkscape:window-maximized="1"
     inkscape:current-layer="layer3">
    <sodipodi:guide
       orientation="1,0"
       position="128,167.7174"
       id="guide3110" />
    <sodipodi:guide
       orientation="0,1"
       position="270.28426,96"
       id="guide3112" />
    <sodipodi:guide
       orientation="0,1"
       position="147.55929,64.743483"
       id="guide3214" />
  </sodipodi:namedview>
  <defs
     id="defs2817">
    <inkscape:perspective
       sodipodi:type="inkscape:persp3d"
       inkscape:vp_x="0 : 64 : 1"
       inkscape:vp_y="0 : 1000 : 0"
       inkscape:vp_z="128 : 64 : 1"
       inkscape:persp3d-origin="64 : 42.666667 : 1"
       id="perspective2850" />
    <linearGradient
       x1="30.059999"
       y1="30.059999"
       x2="225.94"
       y2="225.94"
       id="RSSg"
       gradientUnits="userSpaceOnUse"
       gradientTransform="translate(-603.11864,3.2542373)">
      <stop
         offset="0.0"
         stop-color="#E3702D"
         id="stop2820" />
      <stop
         offset="0.1071"
         stop-color="#EA7D31"
         id="stop2822" />
      <stop
         offset="0.3503"
         stop-color="#F69537"
         id="stop2824" />
      <stop
         offset="0.5"
         stop-color="#FB9E3A"
         id="stop2826" />
      <stop
         offset="0.7016"
         stop-color="#EA7C31"
         id="stop2828" />
      <stop
         offset="0.8866"
         stop-color="#DE642B"
         id="stop2830" />
      <stop
         offset="1.0"
         stop-color="#D95B29"
         id="stop2832" />
    </linearGradient>
    <inkscape:perspective
       id="perspective3047"
       inkscape:persp3d-origin="0.5 : 0.33333333 : 1"
       inkscape:vp_z="1 : 0.5 : 1"
       inkscape:vp_y="0 : 1000 : 0"
       inkscape:vp_x="0 : 0.5 : 1"
       sodipodi:type="inkscape:persp3d" />
    <inkscape:perspective
       id="perspective3145"
       inkscape:persp3d-origin="0.5 : 0.33333333 : 1"
       inkscape:vp_z="1 : 0.5 : 1"
       inkscape:vp_y="0 : 1000 : 0"
       inkscape:vp_x="0 : 0.5 : 1"
       sodipodi:type="inkscape:persp3d" />
    <inkscape:perspective
       id="perspective3145-7"
       inkscape:persp3d-origin="0.5 : 0.33333333 : 1"
       inkscape:vp_z="1 : 0.5 : 1"
       inkscape:vp_y="0 : 1000 : 0"
       inkscape:vp_x="0 : 0.5 : 1"
       sodipodi:type="inkscape:persp3d" />
  </defs>
  <g
     inkscape:groupmode="layer"
     id="layer3"
     inkscape:label="3"
     style="display:inline"
     transform="translate(127.90581,80.094192)">
    <rect
       style="fill:#cc5d15"
       width="256"
       height="256"
       rx="55"
       ry="55"
       x="10.560131"
       y="-7.094192"
       id="rect2834-89" />
    <rect
       style="fill:#f49c52"
       width="246"
       height="246"
       rx="50"
       ry="50"
       x="15.560131"
       y="-2.094192"
       id="rect2836-2" />
    <circle
       style="fill:#ffffff"
       sodipodi:ry="24"
       sodipodi:rx="24"
       sodipodi:cy="189"
       sodipodi:cx="68"
       cx="68"
       cy="189"
       r="24"
       id="circle2840-6"
       transform="translate(10.560135,-7.0941964)"
       d="m 92,189 c 0,13.25483 -10.745166,24 -24,24 -13.254834,0 -24,-10.74517 -24,-24 0,-13.25483 10.745166,-24 24,-24 13.254834,0 24,10.74517 24,24 z" />
    <path
       style="fill:#ffffff"
       d="m 170.56013,205.90582 h -34 A 82,82 0 0 0 54.560135,123.90581 V 89.905808 A 116,116 0 0 1 170.56013,205.90582 z"
       id="path2842-6" />
    <path
       style="fill:#ffffff"
       d="M 194.56013,205.90582 A 140,140 0 0 0 54.560135,65.905807 V 30.905804 A 175,175 0 0 1 229.56013,205.90582 z"
       id="path2844-4" />
    <rect
       style="fill:#656565;fill-opacity:1"
       id="rect2903-9"
       y="-7.094192"
       x="10.560131"
       ry="55"
       rx="55"
       height="256"
       width="256" />
    <rect
       style="fill:#656565;fill-opacity:1"
       id="rect2905-5"
       y="-2.094192"
       x="15.560131"
       ry="50"
       rx="50"
       height="246"
       width="246" />
    <circle
       style="fill:#ffffff"
       sodipodi:ry="24"
       sodipodi:rx="24"
       sodipodi:cy="189"
       sodipodi:cx="68"
       id="circle2907-0"
       r="24"
       cy="189"
       cx="68"
       transform="translate(10.560135,-7.0941964)"
       d="m 92,189 c 0,13.25483 -10.745166,24 -24,24 -13.254834,0 -24,-10.74517 -24,-24 0,-13.25483 10.745166,-24 24,-24 13.254834,0 24,10.74517 24,24 z" />
    <path
       style="fill:#ffffff"
       id="path2909-4"
       d="m 170.56013,205.90582 h -34 A 82,82 0 0 0 54.560135,123.90581 V 89.905808 A 116,116 0 0 1 170.56013,205.90582 z" />
    <path
       style="fill:#ffffff"
       id="path2911-8"
       d="M 194.56013,205.90582 A 140,140 0 0 0 54.560135,65.905807 V 30.905804 A 175,175 0 0 1 229.56013,205.90582 z" />
  </g>
  <g
     inkscape:groupmode="layer"
     id="layer1"
     inkscape:label="1"
     style="display:inline"
     transform="translate(127.90581,80.094192)" />
  <g
     inkscape:groupmode="layer"
     id="layer2"
     inkscape:label="2"
     style="display:inline"
     transform="translate(127.90581,80.094192)">
    <rect
       style="fill:#cc5d15"
       width="256"
       height="256"
       rx="55"
       ry="55"
       x="-115.90581"
       y="-73.581161"
       id="rect2834-8" />
    <rect
       style="fill:#f49c52"
       width="246"
       height="246"
       rx="50"
       ry="50"
       x="-110.90581"
       y="-68.581161"
       id="rect2836-8" />
    <circle
       style="fill:#ffffff"
       sodipodi:ry="24"
       sodipodi:rx="24"
       sodipodi:cy="189"
       sodipodi:cx="68"
       cx="68"
       cy="189"
       r="24"
       id="circle2840-4"
       transform="translate(-115.90581,-73.581148)"
       d="m 92,189 c 0,13.25483 -10.745166,24 -24,24 -13.254834,0 -24,-10.74517 -24,-24 0,-13.25483 10.745166,-24 24,-24 13.254834,0 24,10.74517 24,24 z" />
    <path
       style="fill:#ffffff"
       d="M 44.094194,139.41885 H 10.094196 A 82,82 0 0 0 -71.905806,57.418843 v -33.99999 a 116,116 0 0 1 116,115.999997 z"
       id="path2842-3" />
    <path
       style="fill:#ffffff"
       d="m 68.094194,139.41885 a 140,140 0 0 0 -140,-139.9999969 V -35.581147 A 175,175 0 0 1 103.09419,139.41885 z"
       id="path2844-1" />
    <rect
       style="fill:#009700;fill-opacity:1"
       id="rect2903-4"
       y="-73.581161"
       x="-115.90581"
       ry="55"
       rx="55"
       height="256"
       width="256" />
    <rect
       style="fill:#009700;fill-opacity:1"
       id="rect2905-9"
       y="-68.581161"
       x="-110.90581"
       ry="50"
       rx="50"
       height="246"
       width="246" />
    <circle
       style="fill:#ffffff"
       sodipodi:ry="24"
       sodipodi:rx="24"
       sodipodi:cy="189"
       sodipodi:cx="68"
       id="circle2907-2"
       r="24"
       cy="189"
       cx="68"
       transform="translate(-115.90581,-73.581148)"
       d="m 92,189 c 0,13.25483 -10.745166,24 -24,24 -13.254834,0 -24,-10.74517 -24,-24 0,-13.25483 10.745166,-24 24,-24 13.254834,0 24,10.74517 24,24 z" />
    <path
       style="fill:#ffffff"
       id="path2909-0"
       d="M 44.094194,139.41885 H 10.094196 A 82,82 0 0 0 -71.905806,57.418843 v -33.99999 a 116,116 0 0 1 116,115.999997 z" />
    <path
       style="fill:#ffffff"
       id="path2911-6"
       d="m 68.094194,139.41885 a 140,140 0 0 0 -140,-139.9999969 V -35.581147 A 175,175 0 0 1 103.09419,139.41885 z" />
  </g>
  <g
     inkscape:groupmode="layer"
     id="layer4"
     inkscape:label="Layer"
     transform="translate(127.90581,80.094192)">
    <rect
       style="fill:#cc5d15"
       width="256"
       height="256"
       rx="55"
       ry="55"
       x="-78.905785"
       y="55.905807"
       id="rect2834-1" />
    <rect
       style="fill:#f49c52"
       width="246"
       height="246"
       rx="50"
       ry="50"
       x="-73.905785"
       y="60.905807"
       id="rect2836-7" />
    <circle
       style="fill:#ffffff"
       sodipodi:ry="24"
       sodipodi:rx="24"
       sodipodi:cy="189"
       sodipodi:cx="68"
       cx="68"
       cy="189"
       r="24"
       id="circle2840-2"
       transform="translate(-78.905808,55.90581)"
       d="m 92,189 c 0,13.25483 -10.745166,24 -24,24 -13.254834,0 -24,-10.74517 -24,-24 0,-13.25483 10.745166,-24 24,-24 13.254834,0 24,10.74517 24,24 z" />
    <path
       style="fill:#ffffff"
       d="m 81.094204,268.90581 h -34 a 82,82 0 0 0 -82,-82 v -34 a 116,116 0 0 1 116,116 z"
       id="path2842-7" />
    <path
       style="fill:#ffffff"
       d="M 105.0942,268.90581 A 140,140 0 0 0 -34.905796,128.9058 v -35 A 175,175 0 0 1 140.09419,268.90581 z"
       id="path2844-2" />
    <rect
       style="fill:#fe6f00;fill-opacity:1"
       id="rect2903-2"
       y="55.905807"
       x="-78.905785"
       ry="55"
       rx="55"
       height="256"
       width="256" />
    <rect
       style="fill:#fe6f00;fill-opacity:1"
       id="rect2905-6"
       y="60.905807"
       x="-73.905785"
       ry="50"
       rx="50"
       height="246"
       width="246" />
    <circle
       style="fill:#ffffff"
       sodipodi:ry="24"
       sodipodi:rx="24"
       sodipodi:cy="189"
       sodipodi:cx="68"
       id="circle2907-1"
       r="24"
       cy="189"
       cx="68"
       transform="translate(-78.905808,55.90581)"
       d="m 92,189 c 0,13.25483 -10.745166,24 -24,24 -13.254834,0 -24,-10.74517 -24,-24 0,-13.25483 10.745166,-24 24,-24 13.254834,0 24,10.74517 24,24 z" />
    <path
       style="fill:#ffffff"
       id="path2909-06"
       d="m 81.094204,268.90581 h -34 a 82,82 0 0 0 -82,-82 v -34 a 116,116 0 0 1 116,116 z" />
    <path
       style="fill:#ffffff"
       id="path2911-1"
       d="M 105.0942,268.90581 A 140,140 0 0 0 -34.905796,128.9058 v -35 A 175,175 0 0 1 140.09419,268.90581 z" />
  </g>
</svg>
